<svg width="24" height="28" viewBox="0 0 24 28" fill="none" xmlns="http://www.w3.org/2000/svg">
<g filter="url(#filter0_d_1_2316)">
<path d="M15.1442 7.61536H16.3846C17.2131 7.61536 17.8846 8.28693 17.8846 9.11536L17.8846 17.625C17.8846 18.4534 17.2131 19.125 16.3846 19.125H10.6154C9.78698 19.125 9.1154 18.4534 9.1154 17.625V16.3846M10.2115 5.42303V8.7115H6.92308M6.375 8.01399L9.47002 4.875H13.6442C14.4727 4.875 15.1442 5.54657 15.1442 6.375L15.1442 14.8846C15.1442 15.713 14.4727 16.3846 13.6442 16.3846H7.875C7.04657 16.3846 6.375 15.713 6.375 14.8846V8.01399Z" stroke="#0E6FFF" stroke-width="0.75" stroke-linecap="round" stroke-linejoin="round"/>
</g>
<defs>
<filter id="filter0_d_1_2316" x="-4" y="0" width="32" height="32" filterUnits="userSpaceOnUse" color-interpolation-filters="sRGB">
<feFlood flood-opacity="0" result="BackgroundImageFix"/>
<feColorMatrix in="SourceAlpha" type="matrix" values="0 0 0 0 0 0 0 0 0 0 0 0 0 0 0 0 0 0 127 0" result="hardAlpha"/>
<feOffset dy="4"/>
<feGaussianBlur stdDeviation="2"/>
<feComposite in2="hardAlpha" operator="out"/>
<feColorMatrix type="matrix" values="0 0 0 0 0 0 0 0 0 0 0 0 0 0 0 0 0 0 0.25 0"/>
<feBlend mode="normal" in2="BackgroundImageFix" result="effect1_dropShadow_1_2316"/>
<feBlend mode="normal" in="SourceGraphic" in2="effect1_dropShadow_1_2316" result="shape"/>
</filter>
</defs>
</svg>
