<svg width="32" height="32" viewBox="0 0 32 32" fill="none" xmlns="http://www.w3.org/2000/svg">
<rect width="32" height="32" rx="16" fill="#FCF2DD"/>
<path d="M16 22.5C15.7239 22.5 15.5 22.7239 15.5 23C15.5 23.2761 15.7239 23.5 16 23.5V22.5ZM8.5 16C8.5 16.2761 8.72386 16.5 9 16.5C9.27614 16.5 9.5 16.2761 9.5 16H8.5ZM16.5 12.2308C16.5 11.9546 16.2761 11.7308 16 11.7308C15.7239 11.7308 15.5 11.9546 15.5 12.2308H16.5ZM16 17.0769L16.3201 17.461C16.4341 17.366 16.5 17.2253 16.5 17.0769H16ZM12.4491 19.3851C12.237 19.5619 12.2083 19.8772 12.3851 20.0893C12.5619 20.3015 12.8772 20.3301 13.0893 20.1533L12.4491 19.3851ZM22.5 16C22.5 19.5899 19.5899 22.5 16 22.5V23.5C20.1421 23.5 23.5 20.1421 23.5 16H22.5ZM9.5 16C9.5 12.4101 12.4101 9.5 16 9.5V8.5C11.8579 8.5 8.5 11.8579 8.5 16H9.5ZM16 9.5C19.5899 9.5 22.5 12.4101 22.5 16H23.5C23.5 11.8579 20.1421 8.5 16 8.5V9.5ZM15.5 12.2308V17.0769H16.5V12.2308H15.5ZM15.6799 16.6928L12.4491 19.3851L13.0893 20.1533L16.3201 17.461L15.6799 16.6928Z" fill="#FFB319"/>
</svg>
